Coordinates
version=1
nRows=13
nColumns=40
inDegrees=yes

Units are S.I. units (second, meters, Newtons, ...)
Angles are in degrees.

endheader
time	pelvis_tilt	pelvis_list	pelvis_rotation	pelvis_tx	pelvis_ty	pelvis_tz	hip_flexion_r	hip_adduction_r	hip_rotation_r	knee_angle_r	knee_angle_r_beta	ankle_angle_r	subtalar_angle_r	mtp_angle_r	hip_flexion_l	hip_adduction_l	hip_rotation_l	knee_angle_l	knee_angle_l_beta	ankle_angle_l	subtalar_angle_l	mtp_angle_l	lumbar_extension	lumbar_bending	lumbar_rotation	arm_flex_r	arm_add_r	arm_rot_r	elbow_flex_r	pro_sup_r	wrist_flex_r	wrist_dev_r	arm_flex_l	arm_add_l	arm_rot_l	elbow_flex_l	pro_sup_l	wrist_flex_l	wrist_dev_l
     51.88300000	     -5.50265718	     -5.88134059	      5.02491865	      0.93481564	      0.91607269	      0.47218586	      1.56128405	      4.09006177	    -14.46123274	     13.20096318	     13.20096318	     18.34011734	      0.19717448	     -2.58669812	     32.17928268	     -6.80819630	     -0.29092673	     24.02477207	     24.02477207	      4.15083675	    -11.49996441	      6.80084874	     -8.75707533	      5.80767722	      2.43909296	     49.73242798	    -16.56893417	     -2.15422097	    103.45904720	     44.30609903	      0.00000000	      0.00000000	    -14.01607613	     -8.73076035	     10.14648580	     28.97874961	     43.59276051	      0.00000000	      0.00000000
     51.89600000	     -5.52188252	     -5.82489076	      5.00501841	      0.93632876	      0.91521580	      0.47012196	      1.26423412	      3.87321580	    -14.19439533	     13.72230484	     13.72230484	     18.89808486	     -0.08441926	     -1.81162415	     31.87073496	     -6.56221465	      0.13123509	     24.71499994	     24.71499994	      3.71217972	    -12.32718990	      5.81723710	     -8.55686198	      5.61377008	      2.56783861	     49.48234856	    -16.33524303	     -2.59037388	    104.23938127	     44.31992558	      0.00000000	      0.00000000	    -14.12910329	     -8.70904180	     10.07277702	     28.82067725	     43.66407136	      0.00000000	      0.00000000
     51.90900000	     -5.39209782	     -5.74046427	      4.99174872	      0.93786953	      0.91484904	      0.46796578	      0.72756828	      3.63082947	    -14.06298767	     14.07271006	     14.07271006	     19.09650655	     -0.16576719	     -1.79849886	     31.47638822	     -6.35871220	      0.38379063	     25.50005453	     25.50005453	      3.93805336	    -12.66372416	      5.53959028	     -8.53586014	      5.40490895	      2.64536299	     49.27045197	    -16.21742226	     -2.58673810	    104.26981906	     44.32134392	      0.00000000	      0.00000000	    -14.10672218	     -8.69128442	     10.06692294	     28.74966112	     43.67400076	      0.00000000	      0.00000000
     51.92200000	     -5.28510448	     -5.66835417	      4.96909951	      0.93923903	      0.91474816	      0.46569932	      0.33886607	      3.35908802	    -13.93801217	     14.61918404	     14.61918404	     19.21492813	     -0.31713583	     -1.79577018	     31.12517159	     -6.15082475	      0.68514752	     26.22578135	     26.22578135	      4.29893148	    -13.06546964	      5.27582222	     -8.52753902	      5.24368111	      2.69078802	     48.93740342	    -16.02151544	     -2.58197542	    104.29089200	     44.32231447	      0.00000000	      0.00000000	    -13.94649468	     -8.66311019	     10.05984675	     28.67484786	     43.68630771	      0.00000000	      0.00000000
     51.93500000	     -5.20502562	     -5.60140002	      4.92229233	      0.94041846	      0.91489020	      0.46338993	      0.16679014	      3.03638867	    -13.79620999	     15.49217812	     15.49217812	     19.28434608	     -0.55813306	     -1.81716971	     30.79556539	     -5.94253908	      0.96137551	     26.86421693	     26.86421693	      4.74867906	    -13.56983073	      5.07644356	     -8.54935397	      5.08197933	      2.72810485	     48.46776484	    -15.78512514	     -2.61922269	    104.25756004	     44.32683000	      0.00000000	      0.00000000	    -13.63293778	     -8.62902776	     10.04491959	     28.54332789	     43.70567412	      0.00000000	      0.00000000
     51.94800000	     -5.25811404	     -5.43458018	      4.81509249	      0.94129724	      0.91511002	      0.46088756	      0.43495431	      2.49311760	    -13.60315674	     16.90741484	     16.90741484	     19.38974064	     -0.96521785	     -1.90498466	     30.52517334	     -5.60313219	      1.20885062	     27.32214563	     27.32214563	      5.24583148	    -14.16349858	      5.08183263	     -8.44106686	      4.86149184	      2.85944050	     47.88484188	    -15.55969117	     -2.81032483	    104.08321862	     44.34415693	      0.00000000	      0.00000000	    -13.11949499	     -8.56422241	     10.00311907	     28.18966489	     43.74424529	      0.00000000	      0.00000000
     51.96100000	     -5.12118540	     -5.39293818	      4.72900434	      0.94228457	      0.91599997	      0.45842440	      0.34351957	      2.14220049	    -13.51453197	     17.97158684	     17.97158684	     19.20920144	     -1.17474772	     -1.99411123	     29.99336260	     -5.44736695	      1.35954754	     27.63683439	     27.63683439	      5.80712058	    -14.50679246	      5.01707218	     -8.55595129	      4.78523292	      2.92573539	     47.07829671	    -15.29314551	     -2.75986684	    103.76995458	     44.35291097	      0.00000000	      0.00000000	    -12.50216788	     -8.48284416	      9.97677039	     28.13189665	     43.77021412	      0.00000000	      0.00000000
     51.97400000	     -5.08925951	     -5.22426411	      4.58640801	      0.94291917	      0.91686794	      0.45577713	      0.73232840	      1.53087810	    -13.33043328	     19.70724624	     19.70724624	     19.06230988	     -1.52013852	     -2.33282293	     29.49392118	     -5.15594027	      1.34325747	     27.80270324	     27.80270324	      6.35473807	    -14.84434161	      5.10961762	     -8.60788910	      4.62715698	      3.10789440	     46.18987269	    -15.08996745	     -2.77029508	    103.17351599	     44.37385051	      0.00000000	      0.00000000	    -11.77252589	     -8.42937678	      9.91730810	     27.97031089	     43.80842322	      0.00000000	      0.00000000
     51.98700000	     -5.22682561	     -5.01429669	      4.33761421	      0.94336373	      0.91768668	      0.45323121	      1.54267613	      0.78991332	    -13.18292097	     21.84332781	     21.84332781	     18.76063900	     -1.96620980	     -2.96055721	     29.07118531	     -4.84605271	      1.22149657	     27.79875596	     27.79875596	      6.90225822	    -15.13720888	      5.44825246	     -8.44807867	      4.36255681	      3.31739248	     45.30425391	    -14.97325227	     -2.85282042	    102.19386655	     44.41264184	      0.00000000	      0.00000000	    -10.87951238	     -8.33549340	      9.79908507	     27.68140609	     43.86911051	      0.00000000	      0.00000000
     52.00000000	     -5.20043217	     -4.87788809	      4.09633701	      0.94381726	      0.91883886	      0.45070347	      2.20505878	      0.14429665	    -12.99975239	     23.96992456	     23.96992456	     18.25290859	     -2.38729530	     -3.70322707	     28.44447610	     -4.64819750	      1.00867312	     27.73271911	     27.73271911	      7.43460425	    -15.29181466	      5.70666948	     -8.49345699	      4.22707776	      3.48936835	     44.25961555	    -14.75583421	     -2.74289660	    101.11881085	     44.44613090	      0.00000000	      0.00000000	     -9.99108368	     -8.28315943	      9.65923063	     27.61468669	     43.92816585	      0.00000000	      0.00000000
     52.01300000	     -5.24088543	     -4.76583188	      3.83479326	      0.94408491	      0.91990326	      0.44819352	      3.14139609	     -0.51637938	    -12.76902960	     26.39544912	     26.39544912	     17.49253291	     -2.97041330	     -4.85187218	     27.84029999	     -4.47158220	      0.77960319	     27.56002058	     27.56002058	      7.93947485	    -15.36019391	      6.01908934	     -8.44564275	      4.14532215	      3.65156323	     43.20942660	    -14.55659541	     -2.56324407	     99.67361496	     44.49063828	      0.00000000	      0.00000000	     -9.08130577	     -8.23580401	      9.44344901	     27.67019838	     44.00300749	      0.00000000	      0.00000000
     52.02600000	     -5.20070941	     -4.66337252	      3.56149294	      0.94425351	      0.92106870	      0.44575183	      3.97250608	     -1.11179456	    -12.42258522	     28.56460130	     28.56460130	     15.19150914	     -4.45243692	     -9.71451521	     27.17173696	     -4.30808795	      0.55333023	     27.45092824	     27.45092824	      8.78137679	    -15.32338201	      7.21996199	     -8.43943260	      4.08357987	      3.14920398	     42.76926365	    -13.64141805	     -1.86036610	     96.42631112	     44.61233590	      0.00000000	      0.00000000	     -8.41334824	     -8.05713610	      8.23186877	     27.72822638	     44.32094174	      0.00000000	      0.00000000
     52.03900000	     -5.18154178	     -4.53740321	      3.24372392	      0.94431440	      0.92209596	      0.44337640	      5.20532259	     -1.83549377	    -12.08922766	     31.53548513	     31.53548513	     14.18345043	     -5.17010375	    -10.55702764	     26.45154783	     -4.17491108	      0.12784054	     27.18529888	     27.18529888	      9.15322935	    -15.22860531	      7.10922025	     -8.52267793	      3.99257226	      3.39362606	     41.37233048	    -13.59879705	     -1.51995916	     95.41172424	     44.63342909	      0.00000000	      0.00000000	     -7.48686814	     -8.15628329	      7.99193195	     28.30946883	     44.38508963	      0.00000000	      0.00000000
